# xmcd
#
# Track frame offsets: 
#        150
#        3703
#        11855
#        18951
#        36634
#        58287
#        83792
#        113716
#        141827
#        182321
#        185279
#        203771
#
# Disc length: 3361 seconds
#
# Revision: 0
# Processed by: cddbd v1.5.2PL0 Copyright (c) Steve Scherf et al.
# Submitted via: ExactAudioCopyFreeDBPlugin 1.0
#
DISCID=9f0d1f0c
DTITLE=D'Angelo - Live At The Jazz Cafe, London - The Complete Show
DYEAR=2014
DGENRE=R&B
TTITLE0=Introduction
TTITLE1=Fencewalk
TTITLE2=Sweet Sticky Thing
TTITLE3=Jonz In My Bones
TTITLE4=Me And Those Dreamin' Eyes Of Mine
TTITLE5=Shit, Damn, Motherfucker
TTITLE6=Cruisin'
TTITLE7=I'm Glad You're Mine
TTITLE8=Lady
TTITLE9=Announcement
TTITLE10=Can't Hide Love
TTITLE11=Brown Sugar
EXTD=
EXTT0=
EXTT1=
EXTT2=
EXTT3=
EXTT4=
EXTT5=
EXTT6=
EXTT7=
EXTT8=
EXTT9=
EXTT10=
EXTT11=
PLAYORDER=
